<svg width="24" height="24" viewBox="0 0 24 24" fill="none" xmlns="http://www.w3.org/2000/svg">
<path d="M3 4H4.65269V20.3473H3V4Z" fill="black"/>
<path d="M16.0778 13.8084H17.7305V20.3473H16.0778V13.8084Z" fill="black"/>
<path d="M16.0778 4H17.7305V7.26946H16.0778V4Z" fill="black"/>
<path d="M12.8084 7.26946H14.4611V10.5389H12.8084V7.26946Z" fill="black"/>
<path d="M9.53892 13.8084H11.1916V17.0778H9.53892V13.8084Z" fill="black"/>
<path d="M4.65269 4H7.92216V7.26946H4.65269V4Z" fill="#FFCD02"/>
<path d="M17.7305 4H21V7.26946H17.7305V4Z" fill="#FFCD02"/>
<path d="M4.65269 7.26946V10.5389H11.1916V7.26946H4.65269Z" fill="#FDA302"/>
<path d="M14.4611 7.26946V10.5389H21V7.26946H14.4611Z" fill="#FDA302"/>
<path d="M4.65269 10.5389V13.8084H21V10.5389H4.65269Z" fill="#FF6E00"/>
<path d="M4.65269 13.8084H7.92216V17.0778H4.65269V13.8084Z" fill="#FF480D"/>
<path d="M11.1916 13.8084H14.4611V17.0778H11.1916V13.8084Z" fill="#FF480D"/>
<path d="M17.7305 13.8084H21V17.0778H17.7305V13.8084Z" fill="#FF480D"/>
<path d="M4.65269 17.0778H7.92216V20.3473H4.65269V17.0778Z" fill="#FF0511"/>
<path d="M17.7305 17.0778H21V20.3473H17.7305V17.0778Z" fill="#FF0511"/>
</svg>
