<svg width="24" height="24" viewBox="0 0 24 24" fill="none" xmlns="http://www.w3.org/2000/svg">
<path d="M12 21.6403C12.8504 21.6403 13.5391 20.9516 13.5391 20.1012V6.76208H10.4609V20.1012C10.4609 20.9516 11.1496 21.6403 12 21.6403Z" fill="#F9AB00"/>
<path d="M18.1321 11.6296C16.4724 9.97116 13.9932 9.63512 12 10.6202L18.5887 17.2089C18.8607 17.4808 19.3288 17.3731 19.4442 17.0075C20.024 15.1721 19.5866 13.0853 18.1321 11.6296Z" fill="#5BB974"/>
<path d="M5.86786 11.6296C7.52755 9.97116 10.0068 9.63512 12 10.6202L5.41125 17.2089C5.13934 17.4808 4.67119 17.3731 4.55576 17.0075C3.97602 15.1721 4.41339 13.0853 5.86786 11.6296Z" fill="#129EAF"/>
<path d="M17.6435 6.51582C15.0218 6.51582 12.7965 8.23451 12 10.6202L22.4199 10.6202C22.847 10.6202 23.1317 10.1687 22.9381 9.78775C21.9479 7.8446 19.9496 6.51582 17.6435 6.51582Z" fill="#AF5CF7"/>
<path d="M13.0889 3.72744C11.2343 5.58209 10.8764 8.36919 12 10.6202L19.3686 3.25159C19.6713 2.9489 19.5533 2.42816 19.1467 2.29605C17.0714 1.62268 14.7191 2.09725 13.0889 3.72744Z" fill="#FF8BCB"/>
<path d="M10.9111 3.72744C12.7657 5.58209 13.1236 8.36919 12 10.6202L4.63143 3.25159C4.32873 2.9489 4.44673 2.42816 4.85332 2.29605C6.92858 1.62268 9.28087 2.09725 10.9111 3.72744Z" fill="#FA7B17"/>
<path d="M6.35653 6.51582C8.97818 6.51582 11.2035 8.23451 12 10.6202L1.58011 10.6202C1.153 10.6202 0.868264 10.1687 1.06194 9.78775C2.05211 7.8446 4.05041 6.51582 6.35653 6.51582Z" fill="#4285F4"/>
</svg>
