<svg width="24" height="24" viewBox="0 0 24 24" fill="none" xmlns="http://www.w3.org/2000/svg">
<path d="M3.37627 14.6367C3.37627 15.4767 3.56065 16.1216 3.80164 16.5118C4.11761 17.0229 4.58889 17.2394 5.06934 17.2394C5.68904 17.2394 6.25595 17.0856 7.34845 15.5746C8.22368 14.3635 9.25497 12.6636 9.94888 11.5979L11.124 9.79232C11.9403 8.53839 12.8852 7.14446 13.9685 6.19961C14.8529 5.42843 15.8069 5 16.7671 5C18.3791 5 19.9145 5.93414 21.0897 7.68612C22.3757 9.60488 23 12.0217 23 14.5158C23 15.9985 22.7077 17.0879 22.2105 17.9486C21.73 18.781 20.7936 19.6126 19.2183 19.6126V17.2394C20.5671 17.2394 20.9037 16 20.9037 14.5816C20.9037 12.5603 20.4325 10.3172 19.3943 8.71436C18.6575 7.57748 17.7027 6.88281 16.6523 6.88281C15.5162 6.88281 14.602 7.73967 13.5745 9.26749C13.0282 10.0792 12.4675 11.0684 11.8378 12.1847L11.1447 13.4126C9.75226 15.8814 9.39957 16.4437 8.70337 17.3717C7.4831 18.9967 6.44109 19.6126 5.06934 19.6126C3.44206 19.6126 2.41306 18.908 1.77577 17.8461C1.25553 16.9808 1 15.8455 1 14.5517L3.37627 14.6367Z" fill="#0081FB"/>
<path d="M2.87364 7.85367C3.96309 6.17436 5.53528 5 7.33852 5C8.38283 5 9.42101 5.30908 10.5051 6.19426C11.6909 7.16205 12.9548 8.75567 14.5316 11.3821L15.097 12.3247C16.4618 14.5984 17.2384 15.7682 17.6928 16.3198C18.2773 17.0282 18.6866 17.2394 19.2183 17.2394C20.5671 17.2394 20.9037 16 20.9037 14.5816L23 14.5158C23 15.9985 22.7077 17.0879 22.2105 17.9486C21.73 18.781 20.7936 19.6126 19.2183 19.6126C18.239 19.6126 17.3715 19.3999 16.4121 18.4949C15.6746 17.8002 14.8124 16.5661 14.1491 15.4568L12.176 12.1609C11.186 10.5069 10.2779 9.27361 9.75228 8.71512C9.1869 8.11455 8.4601 7.38928 7.30027 7.38928C6.36154 7.38928 5.56435 8.04799 4.89722 9.05557L2.87364 7.85367Z" fill="url(#paint0_linear_1042_3530)"/>
<path d="M7.30027 7.38928C6.36154 7.38928 5.56435 8.04799 4.89722 9.05557C3.95391 10.4793 3.37627 12.6001 3.37627 14.6367C3.37627 15.4767 3.56065 16.1216 3.80164 16.5118L1.77577 17.8461C1.25553 16.9808 1 15.8455 1 14.5517C1 12.1992 1.64573 9.74718 2.87364 7.85367C3.96309 6.17436 5.53528 5 7.33852 5L7.30027 7.38928Z" fill="url(#paint1_linear_1042_3530)"/>
<defs>
<linearGradient id="paint0_linear_1042_3530" x1="4.05326" y1="13.9512" x2="20.6034" y2="14.8649" gradientUnits="userSpaceOnUse">
<stop stop-color="#0064E1"/>
<stop offset="0.4" stop-color="#0064E1"/>
<stop offset="0.83" stop-color="#0073EE"/>
<stop offset="1" stop-color="#0082FB"/>
</linearGradient>
<linearGradient id="paint1_linear_1042_3530" x1="4.44276" y1="15.6343" x2="4.44276" y2="10.0494" gradientUnits="userSpaceOnUse">
<stop stop-color="#0082FB"/>
<stop offset="1" stop-color="#0064E0"/>
</linearGradient>
</defs>
</svg>
