<svg width="24" height="24" viewBox="0 0 24 24" fill="none" xmlns="http://www.w3.org/2000/svg">
<path d="M11.5006 22.9453V24C14.8001 24 17.647 22.8114 19.9818 20.483C22.3165 18.1546 23.4995 15.2949 23.4995 12.0004C23.4995 8.70576 22.3165 5.85178 19.9825 3.51772C17.6484 1.18367 14.7945 0 11.5006 0V1.05475C14.5047 1.05475 17.1087 2.13429 19.2373 4.26363C21.3659 6.39296 22.4455 8.99123 22.4455 12.0004C22.4455 15.0095 21.3603 17.6077 19.2366 19.7371C17.1129 21.8664 14.5104 22.9453 11.5006 22.9453Z" fill="#6400FF"/>
<path d="M4.24976 7.56247H10.5974V9.77043H8.82719V16.4375H6.01995V9.77043H4.24976V7.56247Z" fill="#6400FF"/>
<path d="M11.5048 7.56247H14.312V16.4375H11.5048V7.56247Z" fill="#6400FF"/>
<path d="M18.9327 7.56247H16.1255V16.4375H18.9327V7.56247Z" fill="#6400FF"/>
</svg>
