<svg width="24" height="24" viewBox="0 0 24 24" fill="none" xmlns="http://www.w3.org/2000/svg">
<path d="M8.66744 2.00001H14.5856L8.44197 20.203C8.37882 20.39 8.25861 20.5526 8.09825 20.6677C7.93789 20.7829 7.74545 20.8448 7.54804 20.8449H2.94223C2.79265 20.8449 2.64522 20.8093 2.51213 20.741C2.37904 20.6727 2.26411 20.5738 2.17687 20.4523C2.08962 20.3308 2.03256 20.1902 2.0104 20.0423C1.98824 19.8944 2.00162 19.7433 2.04943 19.6016L7.77328 2.64187C7.8364 2.45475 7.95663 2.29214 8.11704 2.17695C8.27745 2.06176 8.46996 2.00002 8.66744 2.00001Z" fill="url(#paint0_linear_1042_3527)"/>
<path d="M17.2674 14.2094H7.88261C7.79536 14.2093 7.7101 14.2354 7.63794 14.2845C7.56579 14.3335 7.51007 14.4032 7.47806 14.4844C7.44605 14.5655 7.43923 14.6544 7.45848 14.7395C7.47773 14.8246 7.52216 14.902 7.58599 14.9615L13.6165 20.5901C13.792 20.7539 14.0232 20.8449 14.2633 20.8449H19.5774L17.2674 14.2094Z" fill="#0078D4"/>
<path d="M8.66744 2.00001C8.4678 1.99924 8.27314 2.06233 8.11191 2.18006C7.95067 2.29778 7.8313 2.46398 7.77124 2.65438L2.05648 19.5861C2.00545 19.7284 1.98943 19.8808 2.00977 20.0306C2.03011 20.1803 2.08623 20.3229 2.17336 20.4464C2.26049 20.5699 2.37608 20.6706 2.51034 20.7399C2.64461 20.8093 2.79361 20.8453 2.94473 20.8449H7.66941C7.84538 20.8134 8.00984 20.7358 8.14601 20.62C8.28218 20.5042 8.38518 20.3544 8.44447 20.1857L9.5841 16.8271L13.6549 20.6239C13.8255 20.765 14.0394 20.8431 14.2608 20.8449H19.5551L17.2331 14.2094L10.4642 14.2109L14.607 2.00001L8.66744 2.00001Z" fill="url(#paint1_linear_1042_3527)"/>
<path d="M16.2264 2.64097C16.1634 2.45414 16.0433 2.2918 15.8832 2.17681C15.723 2.06182 15.5308 1.99998 15.3336 2.00001H8.7379C8.93506 2.00002 9.12725 2.06187 9.28741 2.17685C9.44758 2.29184 9.56764 2.45416 9.6307 2.64097L15.3548 19.6014C15.4026 19.7431 15.416 19.8942 15.3939 20.0422C15.3718 20.1902 15.3147 20.3307 15.2275 20.4523C15.1402 20.5738 15.0253 20.6728 14.8922 20.7411C14.7591 20.8094 14.6116 20.8451 14.462 20.8451H21.0579C21.2075 20.845 21.355 20.8094 21.488 20.7411C21.6211 20.6727 21.736 20.5737 21.8233 20.4522C21.9105 20.3306 21.9675 20.1901 21.9896 20.0421C22.0118 19.8942 21.9983 19.7431 21.9505 19.6014L16.2264 2.64097Z" fill="url(#paint2_linear_1042_3527)"/>
<defs>
<linearGradient id="paint0_linear_1042_3527" x1="16.023" y1="3.3967" x2="11.8993" y2="22.7561" gradientUnits="userSpaceOnUse">
<stop stop-color="#114A8B"/>
<stop offset="1" stop-color="#0669BC"/>
</linearGradient>
<linearGradient id="paint1_linear_1042_3527" x1="14.2402" y1="11.8584" x2="12.6684" y2="12.4639" gradientUnits="userSpaceOnUse">
<stop stop-opacity="0.3"/>
<stop offset="0.071" stop-opacity="0.2"/>
<stop offset="0.321" stop-opacity="0.1"/>
<stop offset="0.623" stop-opacity="0.05"/>
<stop offset="1" stop-opacity="0"/>
</linearGradient>
<linearGradient id="paint2_linear_1042_3527" x1="11.9625" y1="2.86688" x2="18.7092" y2="20.8412" gradientUnits="userSpaceOnUse">
<stop stop-color="#3CCBF4"/>
<stop offset="1" stop-color="#2892DF"/>
</linearGradient>
</defs>
</svg>
